<svg id="f3d18f08-3448-4ea2-b544-a3f43388eab1" data-name="Layer 2" xmlns="http://www.w3.org/2000/svg" viewBox="0 0 208.98 66"><rect x="6.22" y="4.64" width="19.76" height="19.76" style="fill:#52addb"/><rect x="6.22" y="24.4" width="19.76" height="19.76" style="fill:#47a2c6"/><rect x="25.98" y="4.64" width="19.76" height="19.76" style="fill:#7bceef"/><rect x="25.98" y="24.4" width="19.76" height="19.76" style="fill:#8cd6f4"/><rect x="27.98" y="26.47" width="19.76" height="19.76" style="fill:#79c9e2"/><rect x="27.98" y="46.23" width="19.76" height="19.76" style="fill:#51a4c4"/><rect x="47.74" y="26.47" width="19.76" height="19.76" style="fill:#52addb"/><rect x="47.74" y="46.23" width="19.76" height="19.76" style="fill:#47c3ea"/><circle cx="4.64" cy="4.64" r="4.64" style="fill:#47c3ea"/><path d="M336.45,307.43V284.55h4v22.88Zm6.4-8-1.93-10.81h-1l.26-4.06h2.37l1.67,10.23h.13l.45,4.64Zm.93,0,.49-4.64h.19l1.68-10.23h2.36l.26,4.06h-1l-1.94,10.81Zm4.47,8V284.55h4v22.88Z" transform="translate(-258.96 -278.05)"/><path d="M365,307.75a9.57,9.57,0,0,1-6.85-2.3q-2.42-2.29-2.41-6.6a9.5,9.5,0,0,1,2.05-6.51,8.45,8.45,0,0,1,11.45-.17c1.33,1.43,2,3.5,2,6.23,0,.78,0,1.51-.1,2.21H358.62v-3H367a3.65,3.65,0,0,0-.88-2.64,3.23,3.23,0,0,0-2.45-.92,3.18,3.18,0,0,0-2.66,1.22,5.58,5.58,0,0,0-.94,3.45,4.71,4.71,0,0,0,1.4,3.68,5.74,5.74,0,0,0,4,1.25,21.81,21.81,0,0,0,2.29-.12c.75-.08,1.52-.19,2.3-.33l.42,4.13a29.07,29.07,0,0,1-3,.37C366.52,307.72,365.72,307.75,365,307.75Z" transform="translate(-258.96 -278.05)"/><path d="M381.68,307.75q-1.95,0-3.45-.12a19.23,19.23,0,0,1-2.65-.37l.51-4.17q2,.26,3.42.39c.92.08,1.65.13,2.17.13a12,12,0,0,0,3.18-.3c.65-.2,1-.52,1-1a.79.79,0,0,0-.24-.61,2,2,0,0,0-.78-.39l-5.55-1.61a5.18,5.18,0,0,1-2.58-1.52,4.15,4.15,0,0,1-.86-2.75,4.44,4.44,0,0,1,2.32-4.1q2.33-1.35,7-1.35c.74,0,1.5,0,2.29.08s1.62.14,2.5.25l-.47,4c-1-.09-1.83-.14-2.56-.18s-1.35,0-1.85,0a16.81,16.81,0,0,0-3.67.28c-.75.19-1.13.49-1.13.92a.78.78,0,0,0,.23.62,1.84,1.84,0,0,0,.73.37l4.79,1.32a7,7,0,0,1,3.29,1.73,4.08,4.08,0,0,1,1.09,3,4.44,4.44,0,0,1-2.16,4.05C386.83,307.3,384.64,307.75,381.68,307.75Z" transform="translate(-258.96 -278.05)"/><path d="M401,307.75c-1.3,0-2.45,0-3.46-.12a19.45,19.45,0,0,1-2.65-.37l.52-4.17c1.35.17,2.49.3,3.41.39s1.65.13,2.18.13a11.9,11.9,0,0,0,3.17-.3c.66-.2,1-.52,1-1a.79.79,0,0,0-.24-.61,2,2,0,0,0-.77-.39l-5.56-1.61a5.15,5.15,0,0,1-2.57-1.52,4.15,4.15,0,0,1-.86-2.75,4.42,4.42,0,0,1,2.32-4.1c1.55-.9,3.89-1.35,7-1.35.73,0,1.49,0,2.28.08s1.63.14,2.51.25l-.47,4c-1-.09-1.83-.14-2.56-.18s-1.35,0-1.86,0a16.76,16.76,0,0,0-3.66.28c-.76.19-1.14.49-1.14.92a.78.78,0,0,0,.24.62,1.77,1.77,0,0,0,.73.37l4.78,1.32a7,7,0,0,1,3.3,1.73,4.12,4.12,0,0,1,1.09,3,4.44,4.44,0,0,1-2.16,4.05C406.17,307.3,404,307.75,401,307.75Z" transform="translate(-258.96 -278.05)"/><path d="M419,307.75a6.21,6.21,0,0,1-4.24-1.34,4.83,4.83,0,0,1-1.51-3.8,5.23,5.23,0,0,1,2-4.4,9,9,0,0,1,5.63-1.53,18.69,18.69,0,0,1,2.42.14,16,16,0,0,1,2.07.45l-.71,3.4a10.68,10.68,0,0,0-1.85-.28c-.55,0-1.12,0-1.72,0-2.26,0-3.39.65-3.39,1.94a1.59,1.59,0,0,0,.61,1.33,3,3,0,0,0,1.79.45,4.72,4.72,0,0,0,2.37-.53,3.59,3.59,0,0,0,1.43-1.35,3.4,3.4,0,0,0,.47-1.69v-1.07l.62,4.39h-1.37l.56-.52a4.79,4.79,0,0,1-.68,2.47,3.85,3.85,0,0,1-1.76,1.49A7,7,0,0,1,419,307.75Zm5.79-.16-.37-5.06-.07-2.23V297a2.14,2.14,0,0,0-1.17-2,7.9,7.9,0,0,0-3.47-.7l-4.36-.11.32-4,3.72,0q4.63.07,6.9,1.83a6.15,6.15,0,0,1,2.25,5.15v6.32l2.37.35v3.55Z" transform="translate(-258.96 -278.05)"/><path d="M439.32,307.75a5.87,5.87,0,0,1-4.94-2.29,13.11,13.11,0,0,1,0-13.12,5.9,5.9,0,0,1,5-2.32,4.52,4.52,0,0,1,3,.85,4.14,4.14,0,0,1,1.31,2.57h1.26l-1,5.46a6.26,6.26,0,0,0-.83-3.62,2.88,2.88,0,0,0-2.51-1.15,3,3,0,0,0-2.56,1.25,7.47,7.47,0,0,0,0,7.07,3,3,0,0,0,2.58,1.19,2.88,2.88,0,0,0,2.61-1.13,6.8,6.8,0,0,0,.73-3.61l1.16,5.43h-1.51a3.85,3.85,0,0,1-1.34,2.56A4.5,4.5,0,0,1,439.32,307.75Zm-5,7.38-.16-3.8,5.47-.17a4.26,4.26,0,0,0,3.28-1.24,5.28,5.28,0,0,0,1-3.49V294l.32-3.61h4.05v15.56q0,4.56-2.15,6.73c-1.43,1.44-3.7,2.22-6.83,2.33Z" transform="translate(-258.96 -278.05)"/><path d="M461.7,307.75a9.57,9.57,0,0,1-6.85-2.3q-2.42-2.29-2.41-6.6a9.5,9.5,0,0,1,2.05-6.51,8.45,8.45,0,0,1,11.45-.17c1.33,1.43,2,3.5,2,6.23,0,.78,0,1.51-.1,2.21H455.3v-3h8.35a3.65,3.65,0,0,0-.88-2.64,3.23,3.23,0,0,0-2.45-.92,3.15,3.15,0,0,0-2.65,1.22,5.51,5.51,0,0,0-.95,3.45,4.71,4.71,0,0,0,1.4,3.68,5.74,5.74,0,0,0,4,1.25,21.81,21.81,0,0,0,2.29-.12c.75-.08,1.52-.19,2.3-.33l.42,4.13a29.07,29.07,0,0,1-3,.37C463.2,307.72,462.4,307.75,461.7,307.75Z" transform="translate(-258.96 -278.05)"/><path d="M346,339.75q-5.26,0-7.89-2.95T335.45,328q0-5.58,2.73-8.66a9.73,9.73,0,0,1,7.67-3.07,10.88,10.88,0,0,1,4.31.78,6.57,6.57,0,0,1,2.82,2.22l-2.67,3.08a5.12,5.12,0,0,0-1.86-1.49,6,6,0,0,0-6.91,1.42,8.59,8.59,0,0,0-1.61,5.56c0,2.63.54,4.61,1.61,5.92a5.85,5.85,0,0,0,4.82,2,10.92,10.92,0,0,0,2.7-.3l1.91-.51,1.53,3.9c-.47.14-1.3.34-2.48.59A19.61,19.61,0,0,1,346,339.75Zm-1.49-8.25v-3.92h7.91v3.92Zm3.79,7.28v-11.2h4.22v11.2Z" transform="translate(-258.96 -278.05)"/><path d="M355,339.43v-3.74h12v3.74Zm.65-13.35v-3.73h6.44l.33,3.73Zm3,13.35V322.35h3.71l.64,4.89v12.19Zm4.35-7.35-1-5.88h1.46c.17-2.78,1.63-4.18,4.37-4.18a4.34,4.34,0,0,1,3.73,1.79,8.73,8.73,0,0,1,1.3,5.16h-4.35a3.39,3.39,0,0,0-.56-2.18,2.2,2.2,0,0,0-1.78-.66,2.56,2.56,0,0,0-2.39,1.55A10,10,0,0,0,363,332.08Z" transform="translate(-258.96 -278.05)"/><path d="M375.64,339.43v-4h6.64v4Zm1-13.06v-4h9.7v4Zm7.33-6.33a2.85,2.85,0,0,1-2-4.8,2.72,2.72,0,0,1,2-.77,2.68,2.68,0,0,1,2,.77,2.79,2.79,0,0,1-2,4.8Zm-2,19.39V323.31h4.35v16.12Zm4,0v-4h5.39v4Z" transform="translate(-258.96 -278.05)"/><path d="M400.65,339.75a5.87,5.87,0,0,1-4.94-2.29,13,13,0,0,1,0-13.12,5.9,5.9,0,0,1,5-2.32,3.65,3.65,0,0,1,4.11,3.42h1.42l-1,5.46a6.26,6.26,0,0,0-.83-3.62,2.89,2.89,0,0,0-2.51-1.15,3,3,0,0,0-2.56,1.25,7.47,7.47,0,0,0,0,7.07,3,3,0,0,0,2.58,1.19,2.85,2.85,0,0,0,2.6-1.13,6.78,6.78,0,0,0,.74-3.61l1.16,5.43h-1.52a3.8,3.8,0,0,1-1.33,2.56A4.5,4.5,0,0,1,400.65,339.75Zm5.19-.16-.63-3.39V315.26h4.36v24.17Z" transform="translate(-258.96 -278.05)"/></svg>